<svg xmlns="http://www.w3.org/2000/svg" width="1200" height="630" viewBox="0 0 1200 630" role="img" aria-labelledby="title desc">
  <title id="title">Assembleia híbrida</title><desc id="desc">Participantes na sala e online unidos por presença, voz, votação e quórum únicos.</desc>
  <defs><linearGradient id="bg"><stop stop-color="#3157a4"/><stop offset="1" stop-color="#062f46"/></linearGradient></defs><rect width="1200" height="630" rx="32" fill="url(#bg)"/><text x="72" y="92" fill="#c8f31d" font-family="Arial" font-size="28" font-weight="700">ALLECTO • GOVERNANÇA</text><text x="72" y="165" fill="white" font-family="Arial" font-size="52" font-weight="700">Assembleia híbrida</text><text x="72" y="220" fill="#d9e7ee" font-family="Arial" font-size="28">dois canais, uma única reunião</text>
  <g transform="translate(70 285)"><rect width="460" height="265" rx="24" fill="white"/><text x="30" y="48" fill="#3157a4" font-family="Arial" font-size="24" font-weight="700">PRESENCIAL</text><path d="M50 220c12-70 150-70 162 0M250 220c12-70 150-70 162 0" fill="#d7e4ed"/><circle cx="130" cy="125" r="40" fill="#3157a4"/><circle cx="330" cy="125" r="40" fill="#3157a4"/></g>
  <g transform="translate(670 285)"><rect width="460" height="265" rx="24" fill="#071e2e" stroke="#7897aa" stroke-width="3"/><text x="30" y="48" fill="#c8f31d" font-family="Arial" font-size="24" font-weight="700">ONLINE</text><g fill="#d7e4ed"><rect x="35" y="75" width="115" height="72" rx="12"/><rect x="173" y="75" width="115" height="72" rx="12"/><rect x="310" y="75" width="115" height="72" rx="12"/><rect x="35" y="170" width="115" height="62" rx="12"/><rect x="173" y="170" width="115" height="62" rx="12"/><rect x="310" y="170" width="115" height="62" rx="12"/></g></g>
  <path d="M535 420H665" stroke="#c8f31d" stroke-width="12" stroke-linecap="round"/><circle cx="600" cy="420" r="28" fill="#c8f31d"/><path d="M588 420l9 9 18-20" fill="none" stroke="#062f46" stroke-width="6" stroke-linecap="round"/>
</svg>
